<svg width="32" height="21" viewBox="0 0 32 21" fill="none" xmlns="http://www.w3.org/2000/svg">
<path d="M0 18.5625C0 19.4945 0.75552 20.25 1.6875 20.25H30.3125C31.2445 20.25 32 19.4945 32 18.5625C32 17.6305 31.2445 16.875 30.3125 16.875H1.6875C0.75552 16.875 0 17.6305 0 18.5625ZM0 10.125C0 11.057 0.75552 11.8125 1.6875 11.8125H30.3125C31.2445 11.8125 32 11.057 32 10.125C32 9.19302 31.2445 8.4375 30.3125 8.4375H1.6875C0.75552 8.4375 0 9.19302 0 10.125ZM1.6875 0C0.75552 0 0 0.75552 0 1.6875C0 2.61948 0.75552 3.375 1.6875 3.375H30.3125C31.2445 3.375 32 2.61948 32 1.6875C32 0.75552 31.2445 0 30.3125 0H1.6875Z" fill="white"/>
</svg>
