<svg width="16" height="20" viewBox="0 0 16 20" fill="none" xmlns="http://www.w3.org/2000/svg">
<path d="M16 9.99933C16 8.17067 14.8808 6.58433 13.2569 5.82267L12.332 6.7C13.7602 7.18633 14.784 8.48167 14.784 9.99933C14.784 11.5117 13.7683 12.8033 12.3489 13.2947L13.2724 14.1693C14.8878 13.4047 16 11.8233 16 9.99933Z" fill="#007CB5"/>
<path d="M13.1981 10C13.1981 8.86967 12.1641 7.954 10.889 7.954V0.462667C10.889 0.207 10.6549 0 10.3663 0C10.0784 0 9.84439 0.207 9.84439 0.462667V0.695C9.46323 0.988 3.67119 5.93767 3.67119 5.93767H1.24766C0.558545 5.93767 0 6.432 0 7.04267V12.9563C0 13.5673 0.558545 14.0617 1.24766 14.0617H3.67154V14.0623C3.67154 14.0623 7.06117 16.517 9.84475 19.2973V19.5367C9.84475 19.7923 10.0788 20 10.3667 20C10.6553 20 10.8893 19.7923 10.8893 19.5367V12.0453C12.1644 12.0453 13.1981 11.1293 13.1981 10Z" fill="#007CB5"/>
</svg>
